<?xml version="1.0" encoding="UTF-8"?><svg id="Layer_2" xmlns="http://www.w3.org/2000/svg" viewBox="0 0 85.23 85"><defs><style>.cls-1{fill:#fefefe;}</style></defs><g id="Graphic_Elements"><g><path class="cls-1" d="M47.07,35.89c1.18-1.33,2.15-2.67,3.37-3.82,3.73-3.51,8.14-5.29,13.29-5.24,2.83,.02,5.63,.23,8.36,1.02,6.24,1.8,9.87,6.1,11.6,12.2,1.3,4.57,1.54,9.27,1.54,13.98,.02,9.93-.03,19.87,0,29.8,0,.93-.26,1.17-1.17,1.17-5.12-.04-10.24-.04-15.35,0-.9,0-1.09-.27-1.09-1.12,.03-9.45,.04-18.91,0-28.36,0-2.37-.16-4.74-.82-7.04-1.22-4.24-4.26-6.4-8.71-6.17-6.07,.32-9.22,3.33-10,9.5-.18,1.47-.27,2.95-.27,4.43,0,9.19,0,18.39,.02,27.58,0,.92-.23,1.19-1.16,1.18-5.15-.05-10.31-.04-15.47,0-.83,0-1.07-.22-1.06-1.05,.02-18.2,.02-36.4,0-54.6,0-.9,.29-1.11,1.15-1.1,4.9,.04,9.79,.04,14.69,0,.9,0,1.13,.28,1.11,1.14-.05,2.17-.02,4.35-.02,6.53Z"/><path class="cls-1" d="M19.03,56.69c0,9-.02,18.01,.02,27.01,0,1-.24,1.3-1.28,1.29-5.12-.06-10.23-.04-15.35,0-.82,0-1.07-.2-1.07-1.05,.02-18.23,.02-36.46,0-54.69,0-.75,.18-1.02,.98-1.02,5.19,.03,10.38,.04,15.57,0,1,0,1.13,.38,1.13,1.23-.02,9.08-.02,18.16-.02,27.24Z"/><path class="cls-1" d="M20.44,10.17c0,5.65-4.58,10.26-10.22,10.26C4.65,20.43,.02,15.82,0,10.25-.02,4.63,4.61,0,10.24,0c5.59,0,10.2,4.6,10.2,10.17Z"/></g></g></svg>