<svg width="16" height="16" viewBox="0 0 16 16" fill="none" xmlns="http://www.w3.org/2000/svg">
<path d="M15.3957 11.1787C15.7827 11.5667 16 12.0924 16 12.6404C16 13.1885 15.7827 13.7142 15.3957 14.1022L14.7867 14.8034C9.31714 20.0375 -3.9905 6.73323 1.16455 1.24739L1.9318 0.579602C2.32049 0.203487 2.8415 -0.00466827 3.38235 7.94684e-05C3.92319 0.0048272 4.44046 0.222097 4.8225 0.604978C4.84253 0.625679 6.07987 2.2337 6.07987 2.2337C6.44692 2.61931 6.6513 3.13152 6.65055 3.6639C6.6498 4.19628 6.44399 4.7079 6.07587 5.09248L5.30194 6.06544C5.72987 7.10526 6.35904 8.05026 7.15329 8.84616C7.94755 9.64206 8.89123 10.2732 9.93013 10.7032L10.9084 9.92523C11.2929 9.55729 11.8044 9.35159 12.3366 9.35084C12.8688 9.3501 13.3808 9.55436 13.7664 9.92123C13.7664 9.92123 15.375 11.1586 15.3957 11.1787ZM14.4775 12.1496C14.4775 12.1496 12.8796 10.9196 12.8589 10.8995C12.7213 10.7631 12.5354 10.6866 12.3417 10.6866C12.148 10.6866 11.9621 10.7631 11.8245 10.8995C11.8065 10.9169 10.4597 11.9907 10.4597 11.9907C10.3689 12.0629 10.2609 12.1103 10.1462 12.1281C10.0316 12.1459 9.91433 12.1335 9.80593 12.0922C8.45922 11.5914 7.23601 10.8067 6.21933 9.79132C5.20266 8.77598 4.41632 7.55378 3.91369 6.20768C3.86971 6.09825 3.85551 5.97911 3.87252 5.86241C3.88952 5.7457 3.93714 5.63557 4.01051 5.54324C4.01051 5.54324 5.08359 4.19632 5.10162 4.17829C5.23802 4.04072 5.31455 3.85482 5.31455 3.66109C5.31455 3.46735 5.23802 3.28146 5.10162 3.14389C5.08158 3.12386 3.85158 1.52518 3.85158 1.52518C3.71204 1.39989 3.52986 1.33272 3.34239 1.33744C3.15491 1.34216 2.97634 1.41841 2.84328 1.55056L2.07603 2.21834C-1.69276 6.74725 9.84132 17.6428 13.8098 13.8925L14.4188 13.1914C14.5623 13.0596 14.6488 12.877 14.6598 12.6824C14.6708 12.4879 14.6054 12.2967 14.4775 12.1496Z" fill="white"/>
</svg>
